<svg width="300" height="300" xmlns="http://www.w3.org/2000/svg">
  <rect width="100%" height="100%" fill="#FDF6EC"/>
  
  <!-- Chess board base -->
  <rect x="60" y="80" width="180" height="180" fill="#8B4513" rx="8"/>
  <rect x="65" y="85" width="170" height="170" fill="#D2691E" rx="6"/>
  
  <!-- Chess board squares -->
  <!-- Row 1 -->
  <rect x="75" y="95" width="18" height="18" fill="#F5DEB3"/>
  <rect x="93" y="95" width="18" height="18" fill="#8B4513"/>
  <rect x="111" y="95" width="18" height="18" fill="#F5DEB3"/>
  <rect x="129" y="95" width="18" height="18" fill="#8B4513"/>
  <rect x="147" y="95" width="18" height="18" fill="#F5DEB3"/>
  <rect x="165" y="95" width="18" height="18" fill="#8B4513"/>
  <rect x="183" y="95" width="18" height="18" fill="#F5DEB3"/>
  <rect x="201" y="95" width="18" height="18" fill="#8B4513"/>
  
  <!-- Row 2 -->
  <rect x="75" y="113" width="18" height="18" fill="#8B4513"/>
  <rect x="93" y="113" width="18" height="18" fill="#F5DEB3"/>
  <rect x="111" y="113" width="18" height="18" fill="#8B4513"/>
  <rect x="129" y="113" width="18" height="18" fill="#F5DEB3"/>
  <rect x="147" y="113" width="18" height="18" fill="#8B4513"/>
  <rect x="165" y="113" width="18" height="18" fill="#F5DEB3"/>
  <rect x="183" y="113" width="18" height="18" fill="#8B4513"/>
  <rect x="201" y="113" width="18" height="18" fill="#F5DEB3"/>
  
  <!-- Row 3 -->
  <rect x="75" y="131" width="18" height="18" fill="#F5DEB3"/>
  <rect x="93" y="131" width="18" height="18" fill="#8B4513"/>
  <rect x="111" y="131" width="18" height="18" fill="#F5DEB3"/>
  <rect x="129" y="131" width="18" height="18" fill="#8B4513"/>
  <rect x="147" y="131" width="18" height="18" fill="#F5DEB3"/>
  <rect x="165" y="131" width="18" height="18" fill="#8B4513"/>
  <rect x="183" y="131" width="18" height="18" fill="#F5DEB3"/>
  <rect x="201" y="131" width="18" height="18" fill="#8B4513"/>
  
  <!-- Row 4 -->
  <rect x="75" y="149" width="18" height="18" fill="#8B4513"/>
  <rect x="93" y="149" width="18" height="18" fill="#F5DEB3"/>
  <rect x="111" y="149" width="18" height="18" fill="#8B4513"/>
  <rect x="129" y="149" width="18" height="18" fill="#F5DEB3"/>
  <rect x="147" y="149" width="18" height="18" fill="#8B4513"/>
  <rect x="165" y="149" width="18" height="18" fill="#F5DEB3"/>
  <rect x="183" y="149" width="18" height="18" fill="#8B4513"/>
  <rect x="201" y="149" width="18" height="18" fill="#F5DEB3"/>
  
  <!-- Chess pieces (simplified) -->
  <!-- White pieces -->
  <circle cx="84" cy="104" r="4" fill="#FFF"/>
  <circle cx="102" cy="104" r="4" fill="#FFF"/>
  <circle cx="120" cy="104" r="4" fill="#FFF"/>
  <circle cx="138" cy="104" r="4" fill="#FFF"/>
  
  <!-- Black pieces -->
  <circle cx="84" cy="122" r="4" fill="#2F4F4F"/>
  <circle cx="102" cy="122" r="4" fill="#2F4F4F"/>
  <circle cx="120" cy="122" r="4" fill="#2F4F4F"/>
  <circle cx="138" cy="122" r="4" fill="#2F4F4F"/>
  
  <!-- King pieces -->
  <circle cx="156" cy="104" r="5" fill="#FFF"/>
  <rect x="154" y="99" width="4" height="3" fill="#FFD700"/>
  <circle cx="156" cy="122" r="5" fill="#2F4F4F"/>
  <rect x="154" y="117" width="4" height="3" fill="#FFD700"/>
  
  <!-- Magnetic closure indicators -->
  <circle cx="70" cy="90" r="3" fill="#C0C0C0"/>
  <circle cx="230" cy="90" r="3" fill="#C0C0C0"/>
  <circle cx="70" cy="250" r="3" fill="#C0C0C0"/>
  <circle cx="230" cy="250" r="3" fill="#C0C0C0"/>
  
  <!-- Folding hinge -->
  <rect x="148" y="85" width="4" height="170" fill="#654321"/>
  <circle cx="150" cy="100" r="2" fill="#C0C0C0"/>
  <circle cx="150" cy="130" r="2" fill="#C0C0C0"/>
  <circle cx="150" cy="160" r="2" fill="#C0C0C0"/>
  <circle cx="150" cy="190" r="2" fill="#C0C0C0"/>
  <circle cx="150" cy="220" r="2" fill="#C0C0C0"/>
  <circle cx="150" cy="240" r="2" fill="#C0C0C0"/>
  
  <!-- Travel case elements -->
  <rect x="250" y="120" width="30" height="60" fill="#8B4513" rx="3"/>
  <rect x="252" y="122" width="26" height="56" fill="#D2691E" rx="2"/>
  <circle cx="265" cy="140" r="2" fill="#C0C0C0"/>
  <rect x="260" y="150" width="10" height="15" fill="#654321"/>
  
  <!-- Decorative corner elements -->
  <circle cx="50" cy="50" r="6" fill="#FFD700" opacity="0.6"/>
  <circle cx="250" cy="60" r="8" fill="#FF6347" opacity="0.6"/>
  
  <text x="150" y="35" font-family="Arial, sans-serif" font-size="16" fill="#C96B3B" text-anchor="middle" font-weight="bold">Magnetic Chess Set</text>
  <text x="150" y="285" font-family="Arial, sans-serif" font-size="12" fill="#666" text-anchor="middle">Travel Folding Board</text>
</svg>
