<svg width="300" height="300" xmlns="http://www.w3.org/2000/svg">
  <rect width="100%" height="100%" fill="#FDF6EC"/>
  
  <!-- Magic Top (Left) -->
  <circle cx="80" cy="150" r="25" fill="#FF6347"/>
  <circle cx="80" cy="150" r="20" fill="#FFD700"/>
  <circle cx="80" cy="150" r="15" fill="#32CD32"/>
  <circle cx="80" cy="150" r="10" fill="#1E90FF"/>
  <circle cx="80" cy="150" r="5" fill="#FF69B4"/>
  <rect x="77" y="125" width="6" height="15" fill="#8B4513"/>
  
  <!-- Finger Top (Center) -->
  <ellipse cx="150" cy="160" rx="20" ry="30" fill="#8B0000"/>
  <ellipse cx="150" cy="155" rx="15" ry="25" fill="#DC143C"/>
  <circle cx="150" cy="145" r="8" fill="#FFD700"/>
  <rect x="147" y="130" width="6" height="10" fill="#654321"/>
  
  <!-- Apple Top (Right) -->
  <circle cx="220" cy="155" r="22" fill="#228B22"/>
  <circle cx="220" cy="150" r="18" fill="#32CD32"/>
  <circle cx="220" cy="145" r="12" fill="#ADFF2F"/>
  <rect x="217" y="133" width="6" height="8" fill="#8B4513"/>
  <ellipse cx="225" cy="135" rx="4" ry="2" fill="#228B22"/>
  
  <!-- Decorative elements -->
  <circle cx="50" cy="50" r="8" fill="#FFD700" opacity="0.6"/>
  <circle cx="250" cy="60" r="6" fill="#FF6347" opacity="0.6"/>
  <circle cx="40" cy="250" r="10" fill="#32CD32" opacity="0.6"/>
  <circle cx="260" cy="240" r="7" fill="#1E90FF" opacity="0.6"/>
  
  <!-- Motion lines -->
  <path d="M 60 130 Q 80 120 100 130" stroke="#FFD700" stroke-width="2" fill="none" opacity="0.7"/>
  <path d="M 130 140 Q 150 130 170 140" stroke="#DC143C" stroke-width="2" fill="none" opacity="0.7"/>
  <path d="M 200 135 Q 220 125 240 135" stroke="#32CD32" stroke-width="2" fill="none" opacity="0.7"/>
  
  <text x="150" y="40" font-family="Arial, sans-serif" font-size="16" fill="#C96B3B" text-anchor="middle" font-weight="bold">Spinning Tops Collection</text>
  <text x="150" y="280" font-family="Arial, sans-serif" font-size="12" fill="#666" text-anchor="middle">Magic • Finger • Apple Tops</text>
</svg>
