<svg width="300" height="300" xmlns="http://www.w3.org/2000/svg">
  <rect width="100%" height="100%" fill="#FDF6EC"/>
  
  <!-- Tool box -->
  <rect x="50" y="120" width="200" height="120" fill="#8B4513" rx="8"/>
  <rect x="55" y="125" width="190" height="110" fill="#D2691E" rx="6"/>
  
  <!-- Tool box handle -->
  <rect x="140" y="110" width="20" height="8" fill="#654321" rx="4"/>
  <rect x="135" y="105" width="30" height="6" fill="#8B4513" rx="3"/>
  
  <!-- Tool compartments -->
  <rect x="65" y="135" width="170" height="15" fill="#F5DEB3"/>
  <rect x="65" y="155" width="80" height="70" fill="#F5DEB3"/>
  <rect x="155" y="155" width="80" height="70" fill="#F5DEB3"/>
  
  <!-- Tools in left compartment -->
  <!-- Hammer -->
  <rect x="75" y="160" width="4" height="25" fill="#8B4513"/>
  <rect x="70" y="158" width="14" height="6" fill="#654321" rx="1"/>
  
  <!-- Screwdriver -->
  <rect x="85" y="165" width="3" height="20" fill="#FFD700"/>
  <rect x="82" y="163" width="9" height="4" fill="#FF6347" rx="1"/>
  
  <!-- Wrench -->
  <rect x="95" y="170" width="3" height="15" fill="#C0C0C0"/>
  <circle cx="96" cy="168" r="3" fill="#A9A9A9"/>
  <circle cx="96" cy="168" r="2" fill="#808080"/>
  
  <!-- Pliers -->
  <path d="M 105 165 L 108 175 L 110 175 L 107 165 Z" fill="#4682B4"/>
  <path d="M 110 165 L 113 175 L 115 175 L 112 165 Z" fill="#4682B4"/>
  <circle cx="108" cy="165" r="2" fill="#1E90FF"/>
  
  <!-- Saw -->
  <rect x="120" y="170" width="15" height="3" fill="#C0C0C0"/>
  <path d="M 120 173 L 122 175 L 124 173 L 126 175 L 128 173 L 130 175 L 132 173 L 134 175 L 135 173" stroke="#A9A9A9" stroke-width="1" fill="none"/>
  <rect x="118" y="168" width="4" height="8" fill="#8B4513"/>
  
  <!-- Tools in right compartment -->
  <!-- Drill -->
  <rect x="165" y="165" width="6" height="15" fill="#FF8C00"/>
  <rect x="167" y="163" width="2" height="4" fill="#654321"/>
  <circle cx="168" cy="180" r="2" fill="#C0C0C0"/>
  
  <!-- Level -->
  <rect x="175" y="170" width="20" height="4" fill="#32CD32"/>
  <circle cx="185" cy="172" r="1" fill="#FFD700"/>
  
  <!-- Measuring tape -->
  <rect x="200" y="165" width="8" height="8" fill="#FFD700" rx="1"/>
  <rect x="208" y="167" width="15" height="4" fill="#FFF"/>
  <line x1="210" y1="169" x2="220" y2="169" stroke="#000" stroke-width="0.5"/>
  
  <!-- Nuts and bolts in top compartment -->
  <circle cx="80" cy="142" r="3" fill="#C0C0C0"/>
  <circle cx="90" cy="142" r="3" fill="#A9A9A9"/>
  <circle cx="100" cy="142" r="3" fill="#C0C0C0"/>
  <rect x="115" y="140" width="3" height="8" fill="#808080"/>
  <rect x="125" y="140" width="3" height="8" fill="#696969"/>
  <rect x="135" y="140" width="3" height="8" fill="#808080"/>
  
  <!-- Screws -->
  <circle cx="160" cy="142" r="2" fill="#C0C0C0"/>
  <circle cx="170" cy="142" r="2" fill="#A9A9A9"/>
  <circle cx="180" cy="142" r="2" fill="#C0C0C0"/>
  <circle cx="190" cy="142" r="2" fill="#A9A9A9"/>
  <circle cx="200" cy="142" r="2" fill="#C0C0C0"/>
  <circle cx="210" cy="142" r="2" fill="#A9A9A9"/>
  
  <!-- Box corners and details -->
  <circle cx="60" cy="130" r="2" fill="#654321"/>
  <circle cx="240" cy="130" r="2" fill="#654321"/>
  <circle cx="60" cy="230" r="2" fill="#654321"/>
  <circle cx="240" cy="230" r="2" fill="#654321"/>
  
  <!-- Label -->
  <rect x="120" y="245" width="60" height="12" fill="#FFF" rx="2"/>
  <text x="150" y="253" font-family="Arial, sans-serif" font-size="8" fill="#333" text-anchor="middle">37 PIECES</text>
  
  <text x="150" y="35" font-family="Arial, sans-serif" font-size="16" fill="#C96B3B" text-anchor="middle" font-weight="bold">Wooden Tool Kit Set</text>
  <text x="150" y="285" font-family="Arial, sans-serif" font-size="12" fill="#666" text-anchor="middle">Construction Play Set</text>
</svg>
