<svg width="800" height="400" xmlns="http://www.w3.org/2000/svg">
  <defs>
    <linearGradient id="bg" x1="0%" y1="0%" x2="100%" y2="100%">
      <stop offset="0%" style="stop-color:#FDF6EC;stop-opacity:1" />
      <stop offset="100%" style="stop-color:#C96B3B;stop-opacity:0.1" />
    </linearGradient>
  </defs>
  <rect width="100%" height="100%" fill="url(#bg)"/>
  
  <!-- Wooden toys illustration -->
  <circle cx="200" cy="150" r="40" fill="#8B4513" opacity="0.8"/>
  <circle cx="200" cy="140" r="35" fill="#D2691E"/>
  <circle cx="190" cy="135" r="5" fill="#000"/>
  <circle cx="210" cy="135" r="5" fill="#000"/>
  <path d="M 185 150 Q 200 160 215 150" stroke="#000" stroke-width="2" fill="none"/>
  
  <rect x="300" y="120" width="60" height="40" fill="#8B4513" rx="5"/>
  <rect x="305" y="125" width="50" height="30" fill="#D2691E" rx="3"/>
  <circle cx="315" cy="135" r="3" fill="#FFD700"/>
  <circle cx="325" cy="135" r="3" fill="#FF6347"/>
  <circle cx="335" cy="135" r="3" fill="#32CD32"/>
  <circle cx="345" cy="135" r="3" fill="#1E90FF"/>
  
  <ellipse cx="450" cy="150" rx="30" ry="45" fill="#8B4513"/>
  <ellipse cx="450" cy="145" rx="25" ry="40" fill="#D2691E"/>
  <circle cx="445" cy="130" r="3" fill="#000"/>
  <circle cx="455" cy="130" r="3" fill="#000"/>
  <path d="M 440 140 Q 450 145 460 140" stroke="#000" stroke-width="1" fill="none"/>
  
  <!-- Decorative elements -->
  <text x="400" y="80" font-family="serif" font-size="32" font-weight="bold" fill="#C96B3B" text-anchor="middle">Sawantwadi</text>
  <text x="400" y="110" font-family="serif" font-size="24" fill="#2D6A4F" text-anchor="middle">Wooden Toys</text>
  
  <text x="400" y="250" font-family="Arial, sans-serif" font-size="14" fill="#666" text-anchor="middle">Handcrafted Heritage from Maharashtra</text>
  <text x="400" y="270" font-family="Arial, sans-serif" font-size="12" fill="#666" text-anchor="middle">200+ Years of Traditional Craftsmanship</text>
  
  <!-- Decorative border -->
  <rect x="10" y="10" width="780" height="380" fill="none" stroke="#C96B3B" stroke-width="2" opacity="0.3" rx="10"/>
</svg>
